<?xml version="1.0" encoding="utf-8"?>
<!-- Generator: Adobe Illustrator 26.3.1, SVG Export Plug-In . SVG Version: 6.00 Build 0)  -->
<svg version="1.1" id="Layer_1" xmlns="http://www.w3.org/2000/svg" xmlns:xlink="http://www.w3.org/1999/xlink" x="0px" y="0px"
	 viewBox="0 0 1104.6 142" style="enable-background:new 0 0 1104.6 142;" xml:space="preserve">
<style type="text/css">
	.st0{enable-background:new    ;}
</style>
<g id="Layer_2_00000136384988638977395780000014111700418055779215_">
	<g id="Layer_1-2">
		<g class="st0">
			<path d="M10.2,10.2V70h74.6v9.2H10.2V141H0V1h93.6v9.2H10.2z"/>
			<path d="M210.6,36.6V141H201v-22.4c-6.8,14.6-21,23.2-39.4,23.2c-26.6,0-43.6-15-43.6-44.2v-61h10v60.2c0,23.6,12.6,36,34.4,36
				c23.6,0,38.2-15.8,38.2-40.6V36.6H210.6z"/>
			<path d="M304.8,134.4c-5.2,5-13.6,7.4-21.4,7.4c-18.4,0-28.4-10.8-28.4-28.4V45.2h-19.2v-8.6H255V13.8h10v22.8h33.2v8.6H265v67.2
				c0,13.4,6.6,20.8,19.4,20.8c6.2,0,12-2,16.2-5.8L304.8,134.4z"/>
			<path d="M424,36.6V141h-9.6v-22.4c-6.8,14.6-21,23.2-39.4,23.2c-26.6,0-43.6-15-43.6-44.2v-61h10v60.2c0,23.6,12.6,36,34.4,36
				c23.6,0,38.2-15.8,38.2-40.6V36.6H424z"/>
			<path d="M515.8,35.8v9.8c-0.8,0-1.6-0.2-2.4-0.2c-23.2,0-37,15.4-37,41.2V141h-10V36.6h9.6v22.8
				C482.4,44.2,496.2,35.8,515.8,35.8z"/>
			<path d="M630.6,91.2h-89.8c1,24.8,19.2,41.6,44.2,41.6c13.2,0,25.4-4.8,33.4-14.6l5.8,6.6c-9.2,11.2-23.6,17-39.4,17
				c-31.6,0-53.8-22-53.8-53s21.4-53,50-53s49.8,21.6,49.8,52.6C630.8,89.2,630.6,90.2,630.6,91.2z M541,83.4h80
				c-1.4-22.6-17.8-38.8-40-38.8C558.8,44.6,542.6,60.6,541,83.4z"/>
			<path d="M650.8,123l4.6-7.6c9.6,10,27.4,17.6,46.2,17.6c28,0,40.4-12.2,40.4-27.4c0-42-87.4-16.8-87.4-68.4
				c0-19.8,15.2-37.2,49.6-37.2c15.4,0,31.4,4.8,42.2,12.6l-3.8,8.2C731,12.8,716.8,9,704.2,9c-27.2,0-39.4,12.6-39.4,28
				c0,42,87.4,17.2,87.4,68c0,19.8-15.8,37-50.4,37C681,142,661,134.2,650.8,123z"/>
			<path d="M772.2,88.8c0-31.2,22.2-53,52.8-53c16.6,0,31,6.4,39.6,19.2l-7.4,5.4C849.6,49.8,838,44.8,825,44.8
				c-24.6,0-42.6,17.6-42.6,44c0,26.4,18,44,42.6,44c13,0,24.6-5,32.2-15.6l7.4,5.4c-8.6,12.6-23,19.2-39.6,19.2
				C794.4,141.8,772.2,119.8,772.2,88.8z"/>
			<path d="M970,74.8V141h-9.6v-18.6c-6.6,12-19.4,19.4-37.6,19.4c-23.4,0-37.6-12-37.6-29.8c0-15.8,10-29.2,39-29.2H960v-8.4
				c0-19.4-10.6-29.8-31-29.8c-14.4,0-27.4,5.4-36,13.2l-5-7.2c10.4-9.2,25.6-14.8,41.8-14.8C955.6,35.8,970,49,970,74.8z
				 M960,110.2V90.6h-35.6c-21.6,0-29.2,9-29.2,21c0,13.6,10.6,22,29,22C941.8,133.6,954,125.2,960,110.2z"/>
			<path d="M1104.6,80v61h-10V80.8c0-23.6-12.6-36-33.8-36c-24.6,0-39.6,15.8-39.6,40.6V141h-10V36.6h9.6v22.6
				c7-14.6,21.6-23.4,41.4-23.4C1087.6,35.8,1104.6,50.8,1104.6,80z"/>
		</g>
	</g>
</g>
</svg>
