<?xml version="1.0" encoding="utf-8"?>
<!-- Generator: Adobe Illustrator 26.3.1, SVG Export Plug-In . SVG Version: 6.00 Build 0)  -->
<svg version="1.1" id="Layer_1" xmlns="http://www.w3.org/2000/svg" xmlns:xlink="http://www.w3.org/1999/xlink" x="0px" y="0px"
	 viewBox="0 0 877.9 116.1" style="enable-background:new 0 0 877.9 116.1;" xml:space="preserve">
<style type="text/css">
	.st0{enable-background:new    ;}
</style>
<g id="Layer_2_00000157992693877719455670000008436241594001499795_">
	<g id="Layer_1-2">
		<g class="st0">
			<path d="M0,4.6h68.1v19H21.6V48h42.3v19H21.6V114H0V4.6z"/>
			<path d="M112.1,116.1c-7.6,0-13.4-2.6-17.4-7.9c-4-5.2-6-12.9-6-22.9V31.9h21.5V82c0,11,3.4,16.5,10.1,16.5
				c4.1,0,7.3-1.7,9.6-5.1c2.3-3.4,3.4-8.2,3.4-14.4V31.9h21.5v82h-19.3l-2.1-12.2C130,111.3,122.9,116.1,112.1,116.1z"/>
			<path d="M227.9,114.3c-8.1,0-14.4-0.8-19-2.5c-4.6-1.7-7.8-4.5-9.7-8.6c-1.9-4.1-2.8-9.6-2.8-16.7V48.4h-20.9V31.9h20.9V9.5
				L217.8,0v31.9h28.1v16.5h-28.1v39.1c0,3.6,0.9,6.2,2.7,7.8c1.8,1.6,4.8,2.4,8.8,2.4h16.5v16.5H227.9z"/>
			<path d="M292.7,116.1c-7.6,0-13.4-2.6-17.4-7.9c-4-5.2-6-12.9-6-22.9V31.9h21.5V82c0,11,3.4,16.5,10.1,16.5
				c4.1,0,7.3-1.7,9.6-5.1c2.3-3.4,3.4-8.2,3.4-14.4V31.9h21.5v82H316l-2.1-12.2C310.6,111.3,303.5,116.1,292.7,116.1z"/>
			<path d="M365.6,31.9h19.3l2.1,12.7c2.1-4.6,5.3-8.3,9.6-10.8c4.3-2.6,9.4-3.9,15.2-3.9c6,0,11.6,1.4,16.7,4.2v20.4
				c-4.7-4.3-10.9-6.4-18.6-6.4c-6.2,0-11.2,1.4-15.1,4.2c-3.9,2.8-6.3,6.9-7.2,12.2c-0.2,1.3-0.4,2.8-0.5,4.6
				c-0.1,1.8-0.1,4.1-0.1,7V114h-21.5V31.9z"/>
			<path d="M487.4,116.1c-14.1,0-24.8-3.6-32.2-11c-7.3-7.3-11-17.9-11-31.7c0-8.7,1.5-16.4,4.5-22.9c3-6.5,7.6-11.6,13.6-15.2
				c6-3.6,13.6-5.4,22.7-5.4c7.5,0,13.9,1.7,19.4,5.2c5.5,3.5,9.7,8.3,12.7,14.5c3,6.2,4.5,13.4,4.5,21.6v8.7H466
				c0,12.8,7.5,19.2,22.4,19.2c9.8,0,19.7-3,29.7-8.9v19.7C508.2,114,498,116.1,487.4,116.1z M500,63.8c0-5.7-1.4-9.9-4.2-12.9
				c-2.8-2.9-6.8-4.4-11.9-4.4c-5.3,0-9.4,1.5-12.4,4.5c-3,3-4.7,7.2-5.3,12.7H500z"/>
			<path d="M571.1,116.1c-2.9,0-5.8-0.1-8.6-0.4s-5.6-0.8-8.3-1.5c-5.7-1.3-10.9-3.2-15.8-5.8V86.1c5.8,4.1,11.4,7.2,16.8,9.2
				c5.5,2,10.7,3,15.8,3c5.4,0,9.5-1.2,12.5-3.7c2.9-2.4,4.4-5.8,4.4-10.1c0-3.4-1-6.2-2.9-8.6c-1-1.3-2.3-2.4-3.7-3.3
				c-1.4-1-3-1.8-4.8-2.5l-10.6-4c-5.6-2.1-10.2-4.3-13.8-6.5c-3.6-2.2-6.4-4.4-8.3-6.6c-3.9-4.4-5.8-10.6-5.8-18.4
				c0-10,3.2-17.7,9.5-23.4c6.4-5.7,15.1-8.5,26.1-8.5c5.4,0,10.5,0.5,15.2,1.6c4.7,1.1,9.7,2.8,14.9,5.2v21.1
				c-9.4-6.7-18.8-10-28.4-10c-5.3,0-9.3,1.1-11.9,3.1c-2.8,2.1-4.2,5.1-4.2,8.9c0,3.1,1,5.6,3.1,7.5c1,1,2.4,2,4.4,3
				s4.7,2.2,8.3,3.6l9.3,3.5c8.8,3.3,15.3,7.5,19.4,12.7c4.1,5.3,6.2,12.2,6.2,20.6c0,10.8-3.3,18.9-9.8,24.3
				C593.5,113.4,583.8,116.1,571.1,116.1z"/>
			<path d="M670.8,116.1c-13,0-23.1-3.8-30.3-11.4c-7.2-7.6-10.8-18.1-10.8-31.6c0-13.6,3.6-24.2,10.7-31.8
				c7.1-7.6,17-11.5,29.7-11.5c8.7,0,17,2.1,25,6.3v19.6c-6.3-5.6-13.5-8.3-21.5-8.3c-7.2,0-12.7,2.2-16.5,6.7
				c-3.8,4.4-5.7,10.8-5.7,19c0,8.2,1.9,14.4,5.7,18.9c3.8,4.4,9.2,6.6,16.2,6.6c8.3,0,15.6-2.8,21.8-8.4v19.7
				C687.8,114,679.7,116.1,670.8,116.1z"/>
			<path d="M744.6,116.1c-8.5,0-15.4-2.4-20.6-7.3c-5.2-4.9-7.9-11.9-7.9-21c0-5.8,1-10.5,3.1-14.1s4.9-6.5,8.5-8.5
				c3.6-2,7.7-3.4,12.2-4.1s9.3-1.1,14.3-1.1H769v-3.6c0-2.9-0.8-5.2-2.3-6.7c-1.5-1.5-3.5-2.5-5.9-3.1c-2.4-0.5-4.9-0.8-7.4-0.8
				c-5.2,0-10.1,0.7-14.9,2.1c-4.8,1.4-9.5,3.4-14.2,6V35.7c5.1-2.1,10.1-3.5,15.1-4.4c5-0.9,10.1-1.4,15.2-1.4
				c9,0,16.1,1.3,21.3,3.8c5.2,2.6,8.9,6.5,11.2,11.9c2.2,5.3,3.3,12.1,3.3,20.4c0,1.9,0,4.3-0.1,7.3c-0.1,3-0.1,6-0.1,8.9
				c0,2.6,0,5.1-0.1,7.5c0,2.3-0.1,4.3-0.1,5.9c0,1.4,0.1,3.3,0.2,5.5c0.1,2.3,0.5,4.6,1,6.9c0.5,2.3,1.4,4.3,2.5,5.9h-21.2
				c-0.9-1.6-1.6-3-2.1-4.4c-0.4-1.4-0.8-3-1-4.8c-2.9,3.9-6.5,6.7-10.8,8.5C754.4,115.2,749.7,116.1,744.6,116.1z M751.6,101.2
				c4.5,0,8-1.2,10.5-3.7c2.5-2.5,4.3-5.6,5.3-9.3c1-3.7,1.6-7.5,1.6-11.3v-1.5h-8.6c-3.4,0-6.7,0.2-10,0.7
				c-3.3,0.5-6.1,1.6-8.2,3.4c-2.2,1.8-3.3,4.8-3.3,9c0,4,1.1,7.1,3.3,9.3C744.5,100.1,747.6,101.2,751.6,101.2z"/>
			<path d="M812,31.9h19.2l2.1,12.3c1.5-4.6,4.1-8.1,7.8-10.6c3.7-2.5,8.2-3.7,13.4-3.7c7.6,0,13.4,2.6,17.4,7.8
				c4,5.2,5.9,12.9,5.9,22.9V114h-21.3V64c0-5.8-0.8-10-2.5-12.6c-1.6-2.7-4.2-4-7.6-4c-4.2,0-7.4,1.8-9.7,5.3
				c-2.3,3.5-3.5,8.3-3.5,14.4V114H812V31.9z"/>
		</g>
	</g>
</g>
</svg>
